<svg width="16" height="16" viewBox="0 0 16 16" fill="none" xmlns="http://www.w3.org/2000/svg">
<path d="M5.21929 10.7807C3.78556 9.34417 2.68297 7.61178 1.98863 5.70468C1.60663 4.66202 1.95663 3.51668 2.74196 2.73135L3.22796 2.24602C3.35862 2.11509 3.51381 2.01123 3.68466 1.94036C3.85551 1.86949 4.03866 1.83301 4.22363 1.83301C4.40859 1.83301 4.59174 1.86949 4.76259 1.94036C4.93344 2.01123 5.08863 2.11509 5.21929 2.24602L6.35729 3.38402C6.48821 3.51467 6.59208 3.66987 6.66295 3.84072C6.73382 4.01157 6.7703 4.19472 6.7703 4.37968C6.7703 4.56465 6.73382 4.7478 6.66295 4.91865C6.59208 5.08949 6.48821 5.24469 6.35729 5.37535L6.07729 5.65535C5.96522 5.7674 5.87631 5.90043 5.81565 6.04685C5.755 6.19327 5.72378 6.3502 5.72378 6.50868C5.72378 6.66717 5.755 6.8241 5.81565 6.97051C5.87631 7.11693 5.96522 7.24996 6.07729 7.36202L8.63729 9.92268C8.74935 10.0348 8.88238 10.1237 9.02879 10.1843C9.17521 10.245 9.33214 10.2762 9.49063 10.2762C9.64911 10.2762 9.80604 10.245 9.95246 10.1843C10.0989 10.1237 10.2319 10.0348 10.344 9.92268L10.6246 9.64268C10.7553 9.51176 10.9105 9.40789 11.0813 9.33702C11.2522 9.26615 11.4353 9.22967 11.6203 9.22967C11.8053 9.22967 11.9884 9.26615 12.1593 9.33702C12.3301 9.40789 12.4853 9.51176 12.616 9.64268L13.754 10.7807C13.8849 10.9113 13.9887 11.0665 14.0596 11.2374C14.1305 11.4082 14.167 11.5914 14.167 11.7763C14.167 11.9613 14.1305 12.1445 14.0596 12.3153C13.9887 12.4862 13.8849 12.6414 13.754 12.772L13.2686 13.2573C12.4833 14.0433 11.338 14.3933 10.2953 14.0113C8.38819 13.317 6.6558 12.2144 5.21929 10.7807Z" stroke="white" stroke-width="1.5" stroke-linejoin="round"/>
</svg>
