<svg width="14" height="16" viewBox="0 0 14 16" fill="none" xmlns="http://www.w3.org/2000/svg">
<path d="M12.1667 7.33331C12.1667 6.37665 12.1653 5.70928 12.0976 5.20571C12.0401 4.77754 11.9411 4.52535 11.7936 4.34568L11.7272 4.27277C11.543 4.08834 11.2835 3.96812 10.7943 3.90232C10.2907 3.83463 9.62332 3.83331 8.66666 3.83331H6.66666C5.70999 3.83331 5.04262 3.83463 4.53905 3.90232C4.11088 3.95991 3.85869 4.05883 3.67903 4.20636L3.60611 4.27277C3.42168 4.45699 3.30147 4.71646 3.23567 5.20571C3.16797 5.70928 3.16666 6.37665 3.16666 7.33331V10.6666C3.16666 11.6233 3.16797 12.2907 3.23567 12.7943C3.30147 13.2835 3.42168 13.543 3.60611 13.7272L3.67903 13.7936C3.85869 13.9411 4.11088 14.0401 4.53905 14.0976C5.04262 14.1653 5.70999 14.1666 6.66666 14.1666H8.66666C9.62332 14.1666 10.2907 14.1653 10.7943 14.0976C11.2835 14.0318 11.543 13.9116 11.7272 13.7272L11.7936 13.6543C11.9411 13.4746 12.0401 13.2224 12.0976 12.7943C12.1653 12.2907 12.1667 11.6233 12.1667 10.6666V7.33331ZM13.1667 10.6666C13.1667 11.5951 13.1679 12.342 13.0892 12.9277C13.0135 13.4903 12.8567 13.9698 12.5065 14.3581L12.4342 14.4342C12.0332 14.8357 11.5277 15.0085 10.9277 15.0892C10.342 15.1679 9.59513 15.1666 8.66666 15.1666H6.66666C5.73818 15.1666 4.99131 15.1679 4.40559 15.0892C3.84296 15.0135 3.36351 14.8567 2.97525 14.5065L2.89908 14.4342C2.49765 14.0331 2.32482 13.5277 2.24413 12.9277C2.16537 12.342 2.16666 11.5951 2.16666 10.6666V7.33331C2.16666 6.40484 2.16537 5.65797 2.24413 5.07225C2.32482 4.47227 2.49765 3.96682 2.89908 3.56574L2.97525 3.49347C3.36351 3.14324 3.84296 2.98645 4.40559 2.91079C4.99131 2.83203 5.73818 2.83331 6.66666 2.83331H8.66666C9.59513 2.83331 10.342 2.83203 10.9277 2.91079C11.5277 2.99148 12.0332 3.16431 12.4342 3.56574L12.5065 3.64191C12.8567 4.03016 13.0135 4.50961 13.0892 5.07225C13.1679 5.65797 13.1667 6.40484 13.1667 7.33331V10.6666Z" fill="#5C5C5C"/>
<path d="M0.166657 10.6666V6.66665C0.166657 5.42379 0.165679 4.44105 0.26887 3.67381C0.373995 2.89236 0.595366 2.25973 1.09439 1.76105C1.59335 1.26252 2.22625 1.04074 3.0078 0.935527C3.77494 0.832284 4.75721 0.833313 5.99999 0.833313H8.66666C9.3297 0.833313 9.96539 1.09689 10.4342 1.56574C10.9031 2.03458 11.1667 2.67027 11.1667 3.33331H10.1667C10.1667 2.93549 10.0085 2.55407 9.7272 2.27277C9.4459 1.99146 9.06448 1.83331 8.66666 1.83331H5.99999C4.7291 1.83331 3.82622 1.83488 3.14127 1.92706C2.47077 2.01733 2.08379 2.18603 1.80142 2.46808C1.51926 2.75 1.34996 3.13656 1.25976 3.80727C1.16761 4.49236 1.16666 5.39551 1.16666 6.66665V10.6666C1.16666 11.0645 1.32481 11.4459 1.60611 11.7272C1.88741 12.0085 2.26883 12.1666 2.66666 12.1666V13.1666C2.00362 13.1666 1.36792 12.9031 0.899079 12.4342C0.430238 11.9654 0.166657 11.3297 0.166657 10.6666Z" fill="#5C5C5C"/>
</svg>
