<svg width="25" height="24" viewBox="0 0 25 24" fill="none" xmlns="http://www.w3.org/2000/svg">
<path d="M17.1667 4.5C19.3727 4.5 21.1667 6.294 21.1667 8.5C21.1667 13.169 15.6237 17.441 12.6667 19.523C9.70966 17.441 4.16666 13.169 4.16666 8.5C4.16666 6.294 5.96066 4.5 8.16666 4.5C8.80896 4.50145 9.44152 4.65716 10.0111 4.95405C10.5807 5.25093 11.0706 5.68029 11.4397 6.206L12.6667 7.953L13.8937 6.207C14.2626 5.68111 14.7525 5.25155 15.3221 4.95449C15.8916 4.65743 16.5243 4.50156 17.1667 4.5ZM17.1667 3C16.2833 2.99987 15.413 3.21288 14.6296 3.62095C13.8462 4.02902 13.1728 4.6201 12.6667 5.344C12.1605 4.6201 11.4871 4.02902 10.7037 3.62095C9.92028 3.21288 9.04997 2.99987 8.16666 3C6.70797 3 5.30902 3.57946 4.27757 4.61091C3.24612 5.64236 2.66666 7.04131 2.66666 8.5C2.66666 14.219 9.16666 18.938 12.6667 21.35C16.1667 18.938 22.6667 14.219 22.6667 8.5C22.6667 7.77773 22.5244 7.06253 22.248 6.39524C21.9716 5.72795 21.5665 5.12163 21.0557 4.61091C20.545 4.10019 19.9387 3.69506 19.2714 3.41866C18.6041 3.14226 17.8889 3 17.1667 3Z" fill="#5C5C5C"/>
</svg>
